<?xml version="1.0" standalone="no"?>
<!DOCTYPE svg PUBLIC "-//W3C//DTD SVG 20010904//EN"
 "http://www.w3.org/TR/2001/REC-SVG-20010904/DTD/svg10.dtd">
<svg version="1.0" xmlns="http://www.w3.org/2000/svg"
 width="300.000000pt" height="300.000000pt" viewBox="0 0 300.000000 300.000000"
 preserveAspectRatio="xMidYMid meet">

<g transform="translate(0.000000,300.000000) scale(0.100000,-0.100000)"
fill="#000000" stroke="none">
<path d="M2990 1610 c0 -765 -2 -1390 -5 -1390 -3 0 -24 14 -47 30 -22 17 -47
30 -54 30 -7 0 -36 20 -64 45 -27 24 -67 49 -87 54 -110 30 -130 39 -173 83
-53 54 -139 124 -201 164 -24 16 -46 31 -49 34 -10 10 -271 185 -308 207 -55
32 -67 29 -91 -24 -48 -103 -65 -133 -78 -133 -7 0 -13 -5 -13 -11 0 -5 5 -7
12 -3 8 5 9 0 4 -17 -4 -13 -8 -32 -8 -41 1 -11 -5 -15 -14 -11 -16 6 -19 33
-4 33 6 0 10 5 10 10 0 19 -15 9 -37 -25 -13 -19 -23 -38 -23 -42 0 -5 5 0 11
10 20 34 26 16 10 -28 -9 -25 -21 -45 -27 -45 -5 0 -16 -24 -24 -53 -7 -28
-15 -58 -17 -64 -3 -7 0 -13 6 -13 14 0 34 47 66 155 10 33 20 54 22 48 3 -7
-2 -34 -10 -60 -8 -27 -17 -58 -20 -71 -9 -40 24 -21 64 36 61 87 52 44 -11
-50 -32 -48 -65 -94 -74 -103 -32 -32 -11 -29 27 3 9 8 19 13 22 10 6 -6 -59
-141 -87 -181 -11 -16 -18 -30 -15 -33 5 -5 67 67 106 124 13 18 25 31 28 28
7 -7 -35 -149 -69 -234 -16 -41 -27 -76 -24 -80 8 -7 8 -8 55 83 22 44 41 73
41 65 0 -16 -23 -104 -35 -132 -7 -17 25 -18 594 -18 l601 0 0 1500 c0 825 -2
1500 -5 1500 -3 0 -5 -625 -5 -1390z"/>
<path d="M1097 2648 c-35 -9 -37 -11 -20 -25 17 -14 17 -14 -2 -8 -11 4 -31
10 -45 12 -20 4 -22 2 -10 -6 12 -9 9 -11 -15 -12 -29 -1 -29 -1 -5 -9 l25 -7
-27 -8 c-16 -4 -34 -5 -41 -2 -6 2 -27 -6 -45 -18 -30 -20 -31 -23 -12 -28 11
-3 18 -1 14 4 -3 5 0 9 5 9 6 0 11 -12 11 -26 0 -30 19 -28 31 4 6 16 5 22 -6
22 -8 0 -15 4 -15 9 0 5 15 9 34 9 19 0 39 3 45 7 6 3 11 2 11 -4 0 -5 -8 -12
-17 -15 -14 -4 -13 -4 2 -3 14 2 19 9 18 25 -2 13 1 21 6 18 5 -4 11 0 14 6 2
7 8 10 12 6 4 -4 2 -14 -5 -23 -7 -9 -11 -17 -9 -18 2 -2 24 19 48 45 24 26
42 48 40 47 -2 -1 -21 -6 -42 -11z"/>
<path d="M1645 2629 c-19 -9 -19 -9 2 -5 12 2 24 -1 27 -8 3 -8 5 -8 5 1 1 17
-11 22 -34 12z"/>
<path d="M1485 2607 c-11 -7 -23 -16 -26 -20 -3 -4 -11 -1 -18 7 -10 12 -18
13 -37 4 -13 -6 -24 -15 -24 -20 0 -11 11 -10 30 2 10 6 22 4 37 -6 20 -13 23
-13 23 1 0 8 7 15 16 15 12 0 14 -3 6 -13 -17 -20 1 -37 36 -34 32 2 46 17 17
17 -11 0 -14 7 -9 25 4 16 2 25 -6 25 -6 0 -8 -4 -5 -10 3 -5 -1 -10 -10 -10
-11 0 -15 5 -11 15 6 17 7 17 -19 2z m35 -47 c0 -5 -4 -10 -10 -10 -5 0 -10 5
-10 10 0 6 5 10 10 10 6 0 10 -4 10 -10z"/>
<path d="M1644 2599 c-9 -15 7 -31 23 -25 22 9 49 -14 31 -26 -8 -5 7 -6 37
-3 37 5 46 4 35 -4 -9 -7 -10 -11 -3 -11 26 0 22 20 -9 43 -51 37 -65 43 -40
15 12 -13 19 -27 16 -31 -4 -3 -15 4 -25 17 -20 26 -56 39 -65 25z"/>
<path d="M1550 2579 c0 -5 4 -9 9 -9 5 0 11 -8 13 -17 3 -15 5 -14 10 4 4 15
1 23 -13 26 -11 3 -19 1 -19 -4z"/>
<path d="M1146 2551 c-17 -18 -17 -22 -2 -43 18 -26 20 -38 6 -38 -5 0 -10 7
-10 15 0 8 -5 15 -11 15 -6 0 -9 -9 -6 -20 3 -11 1 -18 -4 -14 -5 3 -9 -6 -9
-20 0 -26 1 -26 79 -26 l80 0 -1 43 c0 23 -3 36 -5 30 -8 -22 -19 -14 -33 22
-11 29 -16 33 -23 19 -6 -11 -2 -23 14 -40 12 -13 19 -27 14 -31 -4 -5 -10 -2
-12 5 -3 6 -11 12 -19 12 -9 0 -12 -4 -9 -10 15 -24 -5 -7 -30 26 -26 34 -26
36 -9 55 9 10 15 19 12 19 -3 0 -13 -9 -22 -19z"/>
<path d="M1331 2556 c-8 -10 -9 -16 -1 -21 5 -3 10 1 10 10 0 9 4 14 9 10 5
-3 12 -1 16 5 10 15 -21 12 -34 -4z"/>
<path d="M1402 2555 c-37 -20 -38 -26 -1 -14 40 14 43 16 32 21 -4 3 -18 -1
-31 -7z"/>
<path d="M1590 2545 c0 -8 6 -15 14 -15 7 0 19 7 26 15 11 13 8 15 -14 15 -16
0 -26 -5 -26 -15z"/>
<path d="M1015 2539 c-22 -4 -14 -6 29 -7 37 0 62 -5 67 -14 5 -7 9 -8 9 -3 0
30 -38 38 -105 24z"/>
<path d="M1251 2536 c-8 -10 -9 -16 -1 -21 5 -3 10 0 10 9 0 8 6 17 13 19 7 4
8 6 1 6 -6 1 -17 -5 -23 -13z"/>
<path d="M1170 2526 c0 -8 4 -17 9 -20 5 -4 7 3 4 14 -6 23 -13 26 -13 6z"/>
<path d="M1800 2520 c0 -5 5 -10 11 -10 5 0 7 5 4 10 -3 6 -8 10 -11 10 -2 0
-4 -4 -4 -10z"/>
<path d="M848 2503 c-27 -32 -31 -43 -11 -36 15 5 16 4 7 -8 -6 -8 -14 -27
-18 -42 -9 -40 11 -25 23 16 l9 32 1 -31 c1 -16 7 -39 15 -50 13 -17 15 -17
21 -2 4 9 -4 33 -21 59 -21 35 -24 46 -15 61 14 23 9 23 -11 1z"/>
<path d="M1772 2499 c2 -17 -1 -23 -12 -21 -8 1 0 -11 18 -26 17 -16 32 -35
32 -43 1 -12 2 -11 9 1 10 18 2 80 -10 80 -5 0 -8 -4 -6 -9 1 -5 -2 -8 -8 -7
-5 0 -8 8 -7 18 2 9 -2 19 -8 23 -8 5 -10 -1 -8 -16z"/>
<path d="M907 2483 c-14 -13 -7 -43 11 -43 14 0 15 -2 2 -10 -10 -6 -11 -10
-2 -10 6 0 12 -9 12 -20 0 -11 4 -20 10 -20 9 0 7 33 -5 83 -7 27 -16 33 -28
20z"/>
<path d="M804 2435 c-4 -11 -11 -22 -15 -25 -4 -3 -16 -29 -27 -58 -15 -38
-16 -50 -7 -42 8 7 18 28 21 49 4 20 9 30 11 24 3 -7 9 -13 14 -13 4 0 6 7 3
15 -4 8 -1 22 6 30 6 8 10 20 7 27 -3 9 -7 6 -13 -7z"/>
<path d="M1840 2440 c0 -5 6 -10 13 -10 8 0 7 -3 -3 -10 -8 -5 -11 -12 -8 -15
4 -4 13 -1 21 6 11 11 12 16 1 26 -15 16 -24 17 -24 3z"/>
<path d="M1751 2408 c0 -28 2 -30 9 -13 12 28 12 45 0 45 -5 0 -10 -15 -9 -32z"/>
<path d="M1865 2390 c-3 -5 0 -10 7 -10 11 0 10 -2 0 -9 -11 -6 -10 -10 4 -15
9 -3 19 -4 22 -1 3 3 -1 5 -9 5 -8 1 -3 7 11 16 25 15 25 15 1 8 -16 -4 -21
-3 -17 5 4 6 3 11 -3 11 -5 0 -13 -4 -16 -10z"/>
<path d="M1802 2374 c-7 -7 -12 -36 -12 -64 0 -43 -3 -50 -20 -50 -13 0 -20
-7 -20 -20 0 -13 7 -20 20 -20 14 0 20 7 20 21 0 18 6 20 43 18 63 -3 67 -1
67 24 0 20 -4 23 -29 19 -16 -2 -32 1 -36 8 -5 9 -1 10 16 6 l24 -7 -25 16
-25 16 35 -6 c26 -5 31 -4 20 4 -8 6 -23 11 -32 11 -11 0 -16 6 -13 18 4 22
-15 25 -33 6z"/>
<path d="M775 2320 c-17 -32 -20 -74 -5 -65 5 3 6 13 3 23 -6 15 -5 15 10 3
15 -12 17 -10 17 28 0 22 -2 41 -5 41 -2 0 -11 -13 -20 -30z"/>
<path d="M1918 2308 c5 -5 16 -8 23 -6 8 3 3 7 -10 11 -17 4 -21 3 -13 -5z"/>
<path d="M726 2223 c-8 -63 -1 -65 11 -3 6 27 7 50 3 50 -4 0 -10 -21 -14 -47z"/>
<path d="M777 2229 c-3 -12 -4 -34 -1 -48 3 -14 1 -37 -5 -51 -5 -14 -10 -19
-10 -12 -1 7 -7 20 -15 27 -12 12 -15 12 -20 -1 -10 -27 -7 -59 10 -83 12 -17
15 -35 10 -71 -6 -47 0 -84 13 -76 3 2 12 -3 20 -11 12 -13 11 -14 -10 -9 -23
7 -23 6 -5 -8 10 -9 23 -13 27 -10 5 3 19 -2 32 -11 45 -29 138 -47 184 -36
57 15 73 13 43 -4 l-25 -14 33 -1 c20 0 31 4 27 10 -4 6 5 10 21 10 34 0 29 7
-11 15 -36 8 -42 8 -79 -1 -22 -5 -27 -4 -21 6 5 9 2 10 -14 5 -11 -3 -21 -3
-21 2 0 4 -19 9 -42 10 -46 3 -61 12 -50 30 5 8 22 7 62 -7 30 -11 63 -19 73
-20 10 0 15 -4 12 -10 -3 -5 -1 -10 4 -10 6 0 11 5 11 12 0 6 3 8 6 5 4 -3 15
-2 25 3 12 7 20 7 24 0 10 -16 25 -1 19 18 -4 11 -3 13 3 5 4 -6 31 -11 60
-11 29 -1 62 -6 75 -13 16 -9 23 -9 26 0 9 26 390 6 418 -22 11 -11 54 -8 54
3 0 6 -14 19 -32 30 -28 17 -29 20 -14 26 17 7 17 9 -5 25 -32 24 -47 24 -25
0 17 -19 17 -19 -4 -14 -12 3 -24 12 -27 19 -3 8 -15 14 -27 13 -20 0 -20 -1
-1 -8 l20 -8 -20 -5 c-16 -5 -17 -6 -2 -7 9 0 17 -6 17 -12 0 -5 -4 -8 -9 -5
-4 3 -23 1 -42 -4 -24 -7 -35 -6 -41 3 -6 9 -8 9 -8 -2 0 -9 -4 -10 -12 -3
-15 11 -428 12 -428 1 0 -12 -91 -1 -107 12 -7 7 -16 9 -19 6 -7 -7 -127 33
-135 46 -4 5 -12 6 -19 2 -8 -5 0 -16 24 -33 35 -25 46 -42 26 -42 -5 0 -10 4
-10 10 0 5 -7 6 -17 3 -10 -4 -14 -2 -9 5 3 6 -2 17 -13 24 -10 7 -21 22 -24
33 -3 15 -5 14 -6 -7 0 -16 -5 -28 -11 -28 -11 0 -13 24 -3 58 4 18 8 20 14
10 6 -9 9 -4 9 15 0 16 -4 26 -10 22 -5 -3 -10 -1 -10 6 0 7 -7 20 -16 30 -9
10 -14 29 -12 46 l4 28 9 -30 c4 -16 14 -36 22 -43 11 -11 13 -9 14 15 1 28 1
28 8 3 4 -14 17 -27 31 -31 25 -7 25 -7 -2 -8 -16 -1 -28 -6 -28 -11 0 -6 11
-8 26 -4 27 7 28 3 7 -53 -5 -12 10 -18 32 -13 6 1 29 2 53 1 47 -2 57 15 15
25 -58 12 -64 16 -59 30 3 9 -1 14 -12 14 -15 0 -15 2 -2 10 12 7 8 11 -16 16
-31 6 -32 8 -43 78 -6 45 -7 72 -1 74 12 5 13 32 1 32 -5 0 -11 -10 -14 -21z
m887 -328 c4 -5 -3 -7 -14 -4 -23 6 -26 13 -6 13 8 0 17 -4 20 -9z"/>
<path d="M750 2204 c0 -21 4 -45 9 -53 5 -8 7 5 4 35 -7 61 -13 70 -13 18z"/>
<path d="M1908 2194 c3 -15 9 -21 18 -17 11 4 12 9 4 18 -8 9 -7 14 2 18 7 3
4 5 -8 4 -16 -1 -19 -6 -16 -23z"/>
<path d="M1910 2135 c-5 -14 -10 -37 -10 -50 0 -13 -5 -25 -11 -27 -5 -2 -7
-11 -4 -21 10 -24 24 -21 18 3 -4 16 0 20 18 20 13 0 20 4 14 8 -5 4 -10 24
-11 44 0 32 2 36 14 25 12 -10 14 -9 11 2 -9 26 -29 23 -39 -4z m7 -37 c-3 -8
-6 -5 -6 6 -1 11 2 17 5 13 3 -3 4 -12 1 -19z"/>
<path d="M1947 2100 c-3 -11 -1 -20 4 -20 5 0 9 9 9 20 0 11 -2 20 -4 20 -2 0
-6 -9 -9 -20z"/>
<path d="M920 2059 c0 -7 -10 -9 -25 -5 -14 4 -25 2 -25 -4 0 -5 9 -10 21 -10
11 0 29 -4 39 -10 13 -7 19 -6 24 6 3 9 4 20 0 25 -8 13 -34 11 -34 -2z"/>
<path d="M1956 2061 c-5 -7 -3 -18 3 -24 14 -14 20 -6 11 17 -5 15 -9 16 -14
7z"/>
<path d="M1677 2043 c5 -13 3 -13 -14 -3 -24 16 -77 1 -81 -22 -2 -12 8 -17
45 -20 26 -3 57 -8 68 -12 15 -6 16 -5 6 2 -12 9 -12 11 0 15 8 2 4 2 -8 1
-12 -2 -25 0 -28 6 -3 5 -23 10 -43 11 l-37 1 33 10 c27 9 36 8 52 -7 12 -11
20 -13 20 -6 0 9 5 9 20 1 11 -6 17 -16 14 -22 -5 -7 -2 -9 9 -5 20 8 39 -15
31 -39 -5 -16 -4 -16 5 -4 10 13 12 13 21 0 6 -8 8 -23 6 -32 -2 -10 0 -18 5
-18 5 0 9 -6 9 -14 0 -18 17 -29 30 -21 8 5 8 11 1 19 -6 7 -8 15 -6 18 11 11
-20 64 -59 101 -21 20 -39 37 -40 37 -1 0 -15 4 -33 9 -26 8 -31 7 -26 -6z"/>
<path d="M1730 2056 c0 -2 9 -6 20 -9 11 -3 20 -1 20 4 0 5 -9 9 -20 9 -11 0
-20 -2 -20 -4z"/>
<path d="M1775 2041 c-3 -8 4 -24 17 -35 13 -12 17 -14 10 -6 -17 20 -15 35 3
20 8 -7 15 -21 15 -31 0 -10 4 -20 9 -23 5 -3 14 -26 20 -51 7 -28 17 -45 26
-45 8 0 15 7 15 15 0 22 -52 145 -62 145 -4 0 -8 6 -8 13 0 18 -38 16 -45 -2z"/>
<path d="M1856 2028 c8 -43 43 -118 55 -118 5 0 8 18 7 39 -2 21 -6 37 -11 34
-4 -2 -5 -16 -1 -31 3 -17 -2 -12 -15 17 -12 24 -21 54 -21 67 0 13 -4 24 -10
24 -5 0 -7 -14 -4 -32z"/>
<path d="M1920 2035 c0 -19 23 -45 39 -45 6 0 11 5 11 10 0 6 -7 10 -15 10 -8
0 -15 6 -15 14 0 8 -4 18 -10 21 -5 3 -10 -1 -10 -10z"/>
<path d="M732 2020 c0 -14 2 -19 5 -12 2 6 2 18 0 25 -3 6 -5 1 -5 -13z"/>
<path d="M880 2020 c8 -5 24 -9 35 -9 l20 0 -20 9 c-11 5 -27 9 -35 9 -13 1
-13 0 0 -9z"/>
<path d="M796 2004 c-9 -24 -7 -27 9 -10 17 17 19 26 6 26 -5 0 -12 -7 -15
-16z"/>
<path d="M1994 1986 c0 -19 4 -32 8 -30 4 3 8 -2 8 -10 0 -9 5 -16 11 -16 11
0 5 29 -15 68 -11 22 -12 21 -12 -12z"/>
<path d="M976 1965 c-8 -8 -22 -12 -30 -9 -9 3 -24 3 -33 0 -15 -6 -15 -8 -3
-16 8 -6 26 -10 41 -10 14 0 30 -5 36 -11 6 -6 17 -9 25 -6 9 4 5 8 -9 12 -13
4 -23 9 -23 12 0 8 25 29 40 36 10 4 8 6 -7 6 -12 1 -28 -6 -37 -14z m-29 -21
c-3 -3 -12 -4 -19 -1 -8 3 -5 6 6 6 11 1 17 -2 13 -5z"/>
<path d="M1590 1970 c0 -5 16 -10 35 -10 29 0 85 -19 104 -36 2 -2 -2 -10 -8
-18 -10 -12 -9 -17 7 -25 11 -6 23 -7 27 -3 5 4 6 0 3 -9 -5 -12 -1 -15 18
-11 19 3 23 9 18 21 -4 9 -6 27 -5 41 0 18 -2 21 -8 11 -6 -10 -10 -10 -16 -1
-21 34 -175 69 -175 40z"/>
<path d="M1720 1976 c0 -2 7 -7 16 -10 8 -3 12 -2 9 4 -6 10 -25 14 -25 6z"/>
<path d="M2094 1959 c-10 -12 -32 -28 -48 -36 -27 -14 -31 -14 -43 3 -15 21
-17 11 -3 -17 9 -16 7 -19 -11 -19 -22 0 -22 0 -2 -17 29 -26 49 -71 57 -126
6 -36 11 -47 22 -43 8 3 14 -1 14 -9 0 -8 6 -15 14 -15 9 0 15 19 19 60 7 67
28 114 57 133 20 12 25 41 14 71 -6 15 -7 15 -18 1 -10 -15 -13 -14 -26 9 -16
31 -21 32 -46 5z"/>
<path d="M858 1953 c6 -2 18 -2 25 0 6 3 1 5 -13 5 -14 0 -19 -2 -12 -5z"/>
<path d="M2200 1879 c0 -5 5 -7 10 -4 6 3 10 8 10 11 0 2 -4 4 -10 4 -5 0 -10
-5 -10 -11z"/>
<path d="M2220 1865 c-7 -9 -19 -14 -26 -11 -19 7 -64 -51 -65 -82 0 -15 -2
-39 -4 -53 -3 -23 0 -26 26 -27 16 0 29 4 29 9 0 5 5 9 11 9 6 0 9 -7 5 -15
-3 -9 3 -20 14 -27 13 -8 20 -24 20 -44 0 -50 -38 -184 -71 -252 -24 -49 -28
-67 -19 -75 9 -9 16 -7 29 10 10 12 22 19 26 15 5 -4 5 1 2 11 -4 10 1 33 10
50 9 18 18 37 20 42 27 98 33 127 35 172 2 39 7 53 18 53 10 0 11 3 4 8 -7 4
-14 32 -17 62 -8 71 -16 102 -33 116 -7 6 -9 15 -4 23 6 10 12 6 24 -15 9 -17
15 -23 16 -13 0 9 -8 23 -19 33 -16 15 -19 15 -31 1z m-8 -93 c-15 -5 -16 -29
0 -38 7 -5 8 -3 3 6 -5 9 -4 11 3 6 7 -4 12 -23 12 -42 0 -22 -4 -33 -10 -29
-6 4 -8 15 -5 25 4 12 0 19 -12 22 -20 5 -28 44 -12 53 5 4 9 11 9 16 0 17
-18 0 -35 -34 -10 -20 -12 -33 -5 -35 5 -2 8 -8 4 -13 -3 -5 -10 -7 -15 -4
-12 8 -12 45 1 45 6 0 10 6 10 13 0 7 7 23 16 35 l16 23 16 -22 c11 -16 12
-24 4 -27z"/>
<path d="M1486 1855 c-3 -9 -2 -13 4 -10 6 3 10 2 10 -3 0 -5 14 -12 30 -14
17 -3 30 -1 30 3 0 4 -12 10 -27 12 -16 2 -1 5 31 6 73 1 70 6 -10 15 -51 6
-63 4 -68 -9z"/>
<path d="M1215 1844 c-29 -13 -30 -13 -5 -15 50 -3 135 3 143 11 5 4 1 10 -8
14 -10 4 -14 2 -9 -5 4 -8 -1 -9 -17 -3 -39 12 -72 11 -104 -2z"/>
<path d="M1603 1833 c9 -2 25 -2 35 0 9 3 1 5 -18 5 -19 0 -27 -2 -17 -5z"/>
<path d="M1120 1812 c17 -6 11 -18 -17 -33 -26 -13 -22 -14 67 -19 97 -6 146
1 96 14 -14 3 -26 11 -26 16 0 11 12 13 50 10 14 -1 22 1 18 5 -3 3 -49 7
-102 8 -53 1 -92 1 -86 -1z"/>
<path d="M1453 1813 c15 -2 39 -2 55 0 15 2 2 4 -28 4 -30 0 -43 -2 -27 -4z"/>
<path d="M491 1782 c-39 -32 -55 -99 -40 -172 4 -25 8 -66 9 -91 0 -81 45
-233 82 -280 28 -35 167 -82 273 -91 28 -3 30 -7 48 -83 11 -44 24 -88 28 -97
5 -10 9 -28 9 -40 0 -17 8 -9 32 32 17 30 51 81 75 113 42 54 65 68 78 48 3
-6 19 -16 35 -25 17 -8 28 -11 25 -6 -8 12 35 6 64 -9 29 -16 73 -8 114 21 18
13 41 24 52 24 11 1 41 5 67 9 81 13 108 2 159 -68 25 -34 60 -86 78 -114 18
-29 34 -53 36 -53 7 0 -29 109 -52 155 l-24 50 68 12 68 12 -79 -6 c-58 -4
-77 -3 -72 6 4 6 11 9 16 6 27 -16 230 46 274 84 10 9 20 15 22 14 2 -2 7 -3
12 -3 4 0 1 4 -6 8 -10 7 -10 28 -1 103 15 128 9 345 -11 384 -18 36 -58 45
-157 35 l-68 -7 70 -3 70 -3 -60 -8 c-156 -22 -257 -29 -460 -35 -207 -5 -477
6 -520 22 -18 7 -18 8 1 14 22 8 -54 27 -148 37 -32 3 -58 10 -58 14 0 5 -15
6 -32 4 -26 -4 -29 -3 -13 4 19 9 18 10 -5 10 -14 1 -41 -11 -59 -27z m140
-13 c30 -6 62 -11 72 -11 10 1 32 -6 50 -14 l32 -14 -52 5 c-160 15 -183 20
-183 36 0 12 16 11 81 -2z m1244 -29 c-3 -5 -10 -10 -16 -10 -5 0 -9 5 -9 10
0 6 7 10 16 10 8 0 12 -4 9 -10z m-905 -622 c0 -5 -4 -8 -10 -8 -5 0 -6 -7 -3
-17 5 -12 3 -14 -7 -8 -10 6 -12 4 -7 -8 6 -17 -31 -113 -40 -103 -3 3 -2 13
2 23 11 28 14 73 4 79 -16 10 -9 23 9 17 15 -6 15 -4 -2 15 l-19 22 36 -2 c20
-2 37 -6 37 -10z"/>
<path d="M2277 1779 c4 -13 8 -18 11 -10 2 7 -1 18 -6 23 -8 8 -9 4 -5 -13z"/>
<path d="M1653 1743 c9 -2 25 -2 35 0 9 3 1 5 -18 5 -19 0 -27 -2 -17 -5z"/>
<path d="M2283 1735 c-3 -9 -3 -18 -1 -21 3 -3 8 4 11 16 6 23 -1 27 -10 5z"/>
<path d="M852 1731 c15 -5 60 -11 100 -13 125 -5 509 1 598 11 66 7 50 8 -70
3 -194 -9 -369 -8 -530 0 -75 5 -114 4 -98 -1z"/>
<path d="M2130 1673 c-25 -10 -31 -26 -26 -73 l6 -45 -19 40 c-22 46 -28 81
-10 55 7 -10 9 -11 7 -2 -2 8 -8 13 -13 13 -24 -1 -28 -261 -5 -261 5 0 12
-10 16 -22 4 -13 11 -26 16 -29 5 -4 8 -17 6 -30 l-5 -24 -11 25 -11 25 0 -25
c-1 -15 -6 -31 -13 -38 -8 -8 -8 -12 -1 -12 6 0 13 7 17 15 3 8 12 12 21 9 11
-5 15 1 15 25 0 17 3 31 8 31 7 0 42 73 42 89 0 4 7 22 16 40 9 18 18 59 21
91 8 86 -21 124 -77 103z m-41 -113 c0 -9 -4 -8 -9 5 -5 11 -9 27 -9 35 0 9 4
8 9 -5 5 -11 9 -27 9 -35z m33 -45 c-5 -27 -22 -45 -22 -23 0 25 12 58 20 53
4 -2 5 -16 2 -30z"/>
<path d="M2011 1382 c-8 -23 -11 -45 -8 -49 4 -3 7 3 7 13 0 11 5 25 11 31 6
6 9 19 7 29 -2 12 -8 4 -17 -24z"/>
<path d="M2061 1335 c1 -40 1 -40 10 -10 5 18 5 33 -1 39 -7 7 -10 -4 -9 -29z"/>
<path d="M2090 1265 c0 -12 10 -15 39 -13 22 1 38 5 36 9 -3 3 -16 4 -30 1
-15 -2 -25 0 -25 7 0 6 -4 11 -10 11 -5 0 -10 -7 -10 -15z"/>
<path d="M2061 1224 c0 -11 3 -14 6 -6 3 7 2 16 -1 19 -3 4 -6 -2 -5 -13z"/>
<path d="M2118 1233 c6 -2 18 -2 25 0 6 3 1 5 -13 5 -14 0 -19 -2 -12 -5z"/>
<path d="M1915 1210 c-3 -5 -1 -10 4 -10 6 0 11 5 11 10 0 6 -2 10 -4 10 -3 0
-8 -4 -11 -10z"/>
<path d="M1831 1164 c-1 -5 -13 -15 -28 -21 -28 -11 -28 -11 5 -6 22 4 32 2
32 -7 0 -8 2 -11 5 -8 3 3 1 16 -4 29 -5 13 -10 19 -10 13z"/>
<path d="M1861 1144 c0 -11 3 -14 6 -6 3 7 2 16 -1 19 -3 4 -6 -2 -5 -13z"/>
<path d="M1770 1113 c-36 -5 -60 -18 -60 -34 0 -5 5 -9 10 -9 6 0 10 6 10 13
0 7 13 13 33 14 24 2 27 0 13 -6 -11 -4 -15 -10 -10 -13 12 -8 46 17 36 27 -4
4 3 5 16 2 12 -3 20 -1 16 4 -3 5 -11 8 -17 7 -7 0 -28 -3 -47 -5z"/>
<path d="M1740 1067 c0 -19 -13 -22 -41 -7 -15 9 -19 7 -19 -5 0 -9 5 -13 10
-10 6 4 16 2 23 -3 18 -15 55 14 39 30 -9 9 -12 8 -12 -5z"/>
<path d="M1160 1066 c0 -2 8 -10 18 -17 15 -13 16 -12 3 4 -13 16 -21 21 -21
13z"/>
<path d="M1321 884 c-25 -7 -48 -11 -53 -8 -4 3 -8 0 -8 -7 0 -8 -4 -8 -15 1
-11 9 -15 9 -15 1 0 -9 -5 -9 -20 -1 -11 6 -20 8 -20 4 0 -3 -6 -2 -12 3 -7 5
-53 8 -103 8 -83 0 -90 -2 -93 -21 -2 -17 3 -20 35 -23 52 -3 40 -3 308 2 198
3 243 2 257 -10 23 -20 63 -13 63 12 0 24 -35 32 -168 39 -53 3 -100 7 -105 9
-4 3 -27 -1 -51 -9z"/>
<path d="M795 770 c-302 -266 -360 -307 -535 -382 -128 -55 -199 -98 -216
-130 -9 -18 -23 -38 -30 -46 -10 -9 -14 -42 -14 -113 l0 -99 586 0 586 0 -6
23 c-14 49 -47 220 -43 223 2 3 23 -27 47 -66 23 -38 44 -70 46 -70 5 0 -39
104 -51 120 -27 33 -65 131 -65 165 0 33 -6 39 -67 83 -113 80 -169 150 -198
249 -16 53 -21 60 -40 43z"/>
<path d="M1717 563 c-3 -5 -1 -17 4 -28 7 -17 8 -17 8 8 1 27 -4 34 -12 20z"/>
<path d="M1618 482 c-58 -58 -71 -79 -44 -69 10 4 13 1 9 -9 -3 -8 -11 -13
-18 -10 -14 5 -96 -13 -109 -24 -4 -5 -39 -6 -77 -3 -38 3 -69 1 -69 -3 0 -5
28 -29 62 -54 34 -25 67 -49 74 -55 21 -15 28 3 11 29 -15 23 -15 25 1 29 11
3 8 5 -8 6 -14 0 -31 11 -39 22 -11 19 -11 21 4 15 9 -3 27 -9 38 -12 26 -6
51 -50 33 -58 -6 -2 -2 -5 9 -5 17 -1 17 -3 5 -11 -13 -8 -12 -10 3 -10 9 0
17 7 17 16 0 11 5 14 16 10 14 -5 15 -4 4 9 -10 12 -10 15 1 15 11 0 11 3 -1
11 -12 9 -13 12 -1 16 11 5 11 7 0 15 -11 7 -11 11 -1 15 6 2 10 9 6 14 -7 12
7 11 26 -1 13 -9 13 -10 0 -10 -11 -1 -10 -4 4 -15 15 -11 16 -15 5 -16 -8 0
-3 -5 10 -12 21 -10 26 -8 47 18 13 17 24 39 24 50 0 24 20 59 20 36 0 -27 28
8 33 42 3 24 -1 37 -16 50 -11 9 -20 17 -21 17 -1 -1 -27 -27 -58 -58z m82 -2
c0 -16 -4 -30 -10 -30 -5 0 -10 14 -10 30 0 17 5 30 10 30 6 0 10 -13 10 -30z"/>
<path d="M1677 409 c7 -7 15 -10 18 -7 3 3 -2 9 -12 12 -14 6 -15 5 -6 -5z"/>
<path d="M1193 247 c13 -33 101 -160 104 -150 3 7 -19 46 -47 87 -47 70 -69
95 -57 63z"/>
<path d="M1413 198 c-39 -58 -62 -110 -69 -158 l-6 -39 132 0 c117 -1 131 1
126 15 -3 9 -9 27 -12 40 -3 13 -10 24 -14 24 -4 0 -10 17 -12 38 -3 20 -14
55 -24 77 -17 35 -24 40 -56 43 -33 3 -39 -1 -65 -40z"/>
</g>
</svg>
